<svg width="23" height="20" viewBox="0 0 23 20" fill="none" xmlns="http://www.w3.org/2000/svg">
<path d="M11.4016 0.554425L11.4016 0.554469L21.7955 8.65544L21.4836 9.04993L20.5575 8.3278L19.75 7.6982V8.7221L19.75 17.9986C19.75 17.9989 19.75 17.9991 19.75 17.9994C19.7493 18.2644 19.6437 18.5184 19.4562 18.7058C19.2688 18.8933 19.0148 18.9989 18.7498 18.9996C18.7495 18.9996 18.7493 18.9996 18.749 18.9996H3.751C3.75073 18.9996 3.75046 18.9996 3.7502 18.9996C3.48517 18.9989 3.23119 18.8933 3.04377 18.7058C2.85626 18.5183 2.75064 18.2642 2.75 17.999V8.71535V7.69145L1.94255 8.32105L1.01643 9.04318L0.704437 8.64861L11.0849 0.554424C11.0849 0.554417 11.0849 0.554409 11.085 0.554402C11.1302 0.519147 11.1859 0.5 11.2432 0.5C11.3006 0.5 11.3563 0.519154 11.4016 0.554425ZM12.75 18.4996H13.25V17.9996V11.9996V11.4996H12.75H9.75H9.25V11.9996V17.9996V18.4996H9.75H12.75ZM13.75 17.9996V18.4996H14.25H18.75H19.25V17.9996V7.5536V7.30949L19.0575 7.15935L11.5575 1.30935L11.2502 1.06964L10.9427 1.30916L3.44273 7.15166L3.25 7.3018V7.5461V17.9996V18.4996H3.75H8.25H8.75V17.9996V12.0001C8.75026 11.7348 8.85576 11.4805 9.04333 11.2929C9.2309 11.1054 9.48523 10.9999 9.7505 10.9996H12.7495C13.0148 10.9999 13.2691 11.1054 13.4567 11.2929C13.6442 11.4805 13.7497 11.7348 13.75 12.0001V17.9996Z" fill="#A0A0A0" stroke="#A0A0A0"/>
</svg>
