<svg width="24" height="24" viewBox="0 0 24 24" fill="none" xmlns="http://www.w3.org/2000/svg">
<path d="M8.89004 15.4026C8.34184 15.4697 7.95179 15.9684 8.01883 16.5166C8.08587 17.0648 8.58462 17.4549 9.13283 17.3879C9.68103 17.3208 10.0711 16.8221 10.004 16.2739C9.937 15.7257 9.43824 15.3356 8.89004 15.4026Z" fill="#A0A0A0"/>
<path d="M5.54807 12.789C5.48102 12.2408 5.87108 11.7421 6.41928 11.675C6.96748 11.608 7.46623 11.998 7.53327 12.5462C7.60032 13.0944 7.21026 13.5932 6.66206 13.6602C6.11386 13.7273 5.61511 13.3372 5.54807 12.789Z" fill="#A0A0A0"/>
<path d="M7.91891 7.46182C7.37071 7.52886 6.98066 8.02762 7.0477 8.57582C7.11474 9.12402 7.61349 9.51407 8.1617 9.44703C8.7099 9.37999 9.09995 8.88123 9.03291 8.33303C8.96587 7.78483 8.46711 7.39478 7.91891 7.46182Z" fill="#A0A0A0"/>
<path d="M15.6973 9.28105C15.6302 8.73285 16.0203 8.23409 16.5685 8.16705C17.1167 8.10001 17.6154 8.49006 17.6825 9.03826C17.7495 9.58646 17.3595 10.0852 16.8113 10.1523C16.2631 10.2193 15.7643 9.82925 15.6973 9.28105Z" fill="#A0A0A0"/>
<path d="M11.9926 10.8786C11.4444 10.9456 11.0543 11.4444 11.1214 11.9926C11.1884 12.5408 11.6872 12.9308 12.2354 12.8638C12.7836 12.7967 13.1736 12.298 13.1066 11.7498C13.0395 11.2016 12.5408 10.8115 11.9926 10.8786Z" fill="#A0A0A0"/>
<path d="M11.393 7.03694C11.326 6.48874 11.716 5.98998 12.2642 5.92294C12.8125 5.8559 13.3112 6.24595 13.3782 6.79415C13.4453 7.34235 13.0552 7.84111 12.507 7.90815C11.9588 7.97519 11.4601 7.58514 11.393 7.03694Z" fill="#A0A0A0"/>
<path fill-rule="evenodd" clip-rule="evenodd" d="M2.25286 11.7637C2.38336 6.38046 6.85308 2.1223 12.2363 2.2528C17.6195 2.38329 21.8776 6.85302 21.7471 12.2362C21.7389 12.5772 21.6243 12.8886 21.4131 13.1451C21.2112 13.3903 20.9498 13.5512 20.6918 13.6589C20.1898 13.8684 19.5606 13.9341 18.9379 13.9384C16.2492 13.9565 13.9138 16.2692 13.7612 18.9967C13.7256 19.633 13.6171 20.2803 13.3433 20.7888C13.2015 21.0521 13.0023 21.3027 12.7233 21.484C12.4377 21.6697 12.1102 21.7555 11.7637 21.7471C6.38052 21.6166 2.12236 17.1468 2.25286 11.7637ZM12.1999 3.75236C7.64492 3.64194 3.86284 7.24499 3.75242 11.8C3.642 16.355 7.24505 20.1371 11.8001 20.2475C11.8682 20.2492 11.8934 20.2345 11.9057 20.2265C11.9247 20.2141 11.9687 20.1776 12.0225 20.0777C12.1399 19.8597 12.2321 19.4757 12.2636 18.9129C12.458 15.438 15.4044 12.4622 18.9277 12.4384C19.4898 12.4346 19.8842 12.3705 20.114 12.2746C20.1951 12.2408 20.233 12.2121 20.2476 12.1991C20.3576 7.64443 16.7547 3.86277 12.1999 3.75236Z" fill="#A0A0A0"/>
</svg>
